<svg width="95" height="82" viewBox="0 0 95 82" fill="none" xmlns="http://www.w3.org/2000/svg">
<path d="M1.8022 58.5455H6.35334L11.1602 70.2727H11.3647L16.1715 58.5455H20.7227V76H17.1431V64.6392H16.9982L12.4812 75.9148H10.0437L5.52663 64.5966H5.38175V76H1.8022V58.5455ZM27.4535 58.5455V76H23.7631V58.5455H27.4535ZM45.0891 58.5455V76H41.9016L34.3079 65.0142H34.18V76H30.4897V58.5455H33.7283L41.2624 69.5227H41.4158V58.5455H45.0891ZM62.7376 58.5455V76H59.5501L51.9563 65.0142H51.8285V76H48.1381V58.5455H51.3768L58.9109 69.5227H59.0643V58.5455H62.7376ZM65.7866 76V58.5455H77.5479V61.5881H69.4769V65.7472H76.9428V68.7898H69.4769V72.9574H77.582V76H65.7866ZM80.4819 76V58.5455H87.3683C88.6864 58.5455 89.8114 58.7812 90.7433 59.2528C91.6808 59.7187 92.3938 60.3807 92.8825 61.2386C93.3768 62.0909 93.6239 63.0937 93.6239 64.2472C93.6239 65.4062 93.3739 66.4034 92.8739 67.2386C92.3739 68.0682 91.6495 68.7045 90.7006 69.1477C89.7575 69.5909 88.6154 69.8125 87.2745 69.8125H82.6637V66.8466H86.6779C87.3825 66.8466 87.9677 66.75 88.4336 66.5568C88.8995 66.3636 89.2461 66.0739 89.4734 65.6875C89.7063 65.3011 89.8228 64.821 89.8228 64.2472C89.8228 63.6676 89.7063 63.179 89.4734 62.7812C89.2461 62.3835 88.8967 62.0824 88.4251 61.8778C87.9592 61.6676 87.3711 61.5625 86.6609 61.5625H84.1722V76H80.4819ZM89.908 68.0568L94.2461 76H90.1722L85.9279 68.0568H89.908Z" fill="#FAFAFA"/>
<path d="M56 32C59.3138 32 62 34.6862 62 38C62 41.3138 59.3138 44 56 44C52.6862 44 50 41.3138 50 38C50 34.6862 52.6862 32 56 32ZM36 24C40.4183 24 44 27.5818 44 32C44 36.4182 40.4183 40 36 40C31.5817 40 28 36.4182 28 32C28 27.5818 31.5817 24 36 24ZM53 4C59.0752 4 64 8.92486 64 15C64 21.0752 59.0752 26 53 26C46.9248 26 42 21.0752 42 15C42 8.92486 46.9248 4 53 4Z" fill="#FAFAFA"/>
</svg>
