<svg width="95" height="91" viewBox="0 0 95 91" fill="none" xmlns="http://www.w3.org/2000/svg">
<path d="M1.8022 67.5455H6.35334L11.1602 79.2727H11.3647L16.1715 67.5455H20.7227V85H17.1431V73.6392H16.9982L12.4812 84.9148H10.0437L5.52663 73.5966H5.38175V85H1.8022V67.5455ZM27.4535 67.5455V85H23.7631V67.5455H27.4535ZM45.0891 67.5455V85H41.9016L34.3079 74.0142H34.18V85H30.4897V67.5455H33.7283L41.2624 78.5227H41.4158V67.5455H45.0891ZM62.7376 67.5455V85H59.5501L51.9563 74.0142H51.8285V85H48.1381V67.5455H51.3768L58.9109 78.5227H59.0643V67.5455H62.7376ZM65.7866 85V67.5455H77.5479V70.5881H69.4769V74.7472H76.9428V77.7898H69.4769V81.9574H77.582V85H65.7866ZM80.4819 85V67.5455H87.3683C88.6864 67.5455 89.8114 67.7812 90.7433 68.2528C91.6808 68.7187 92.3938 69.3807 92.8825 70.2386C93.3768 71.0909 93.6239 72.0937 93.6239 73.2472C93.6239 74.4062 93.3739 75.4034 92.8739 76.2386C92.3739 77.0682 91.6495 77.7045 90.7006 78.1477C89.7575 78.5909 88.6154 78.8125 87.2745 78.8125H82.6637V75.8466H86.6779C87.3825 75.8466 87.9677 75.75 88.4336 75.5568C88.8995 75.3636 89.2461 75.0739 89.4734 74.6875C89.7063 74.3011 89.8228 73.821 89.8228 73.2472C89.8228 72.6676 89.7063 72.179 89.4734 71.7812C89.2461 71.3835 88.8967 71.0824 88.4251 70.8778C87.9592 70.6676 87.3711 70.5625 86.6609 70.5625H84.1722V85H80.4819ZM89.908 77.0568L94.2461 85H90.1722L85.9279 77.0568H89.908Z" fill="#F59E0B"/>
<path d="M56 32C59.3138 32 62 34.6862 62 38C62 41.3138 59.3138 44 56 44C52.6862 44 50 41.3138 50 38C50 34.6862 52.6862 32 56 32ZM36 24C40.4183 24 44 27.5818 44 32C44 36.4182 40.4183 40 36 40C31.5817 40 28 36.4182 28 32C28 27.5818 31.5817 24 36 24ZM53 4C59.0752 4 64 8.92486 64 15C64 21.0752 59.0752 26 53 26C46.9248 26 42 21.0752 42 15C42 8.92486 46.9248 4 53 4Z" fill="#F59E0B"/>
</svg>
